HIERARCHY
ROOT mixamorig:Hips
{
	OFFSET -0.000008 104.274872 1.554316
	CHANNELS 6 Xposition Yposition Zposition Xrotation Yrotation Zrotation
	JOINT mixamorig:Spine
	{
		OFFSET -0.000005 10.181595 0.131519
		CHANNELS 6 Xposition Yposition Zposition Xrotation Yrotation Zrotation
		JOINT mixamorig:Spine1
		{
			OFFSET -0.000000 9.893959 -1.470707
			CHANNELS 6 Xposition Yposition Zposition Xrotation Yrotation Zrotation
			JOINT mixamorig:Spine2
			{
				OFFSET -0.000000 9.220757 -1.370641
				CHANNELS 6 Xposition Yposition Zposition Xrotation Yrotation Zrotation
				JOINT mixamorig:Neck
				{
					OFFSET 0.000001 16.740417 -2.049036
					CHANNELS 6 Xposition Yposition Zposition Xrotation Yrotation Zrotation
					JOINT mixamorig:Head
					{
						OFFSET 0.000000 9.617874 1.685006
						CHANNELS 6 Xposition Yposition Zposition Xrotation Yrotation Zrotation
						JOINT mixamorig:HeadTop_End
						{
							OFFSET 0.000002 22.037354 7.501101
							CHANNELS 6 Xposition Yposition Zposition Xrotation Yrotation Zrotation
							End Site
							{
								OFFSET 0.000168 2310.654297 -282.823242
							}
						}
					}
				}
				JOINT mixamorig:RightShoulder
				{
					OFFSET -4.569970 11.014908 -2.160885
					CHANNELS 6 Xposition Yposition Zposition Xrotation Yrotation Zrotation
					JOINT mixamorig:RightArm
					{
						OFFSET -10.592851 -0.524811 -2.232101
						CHANNELS 6 Xposition Yposition Zposition Xrotation Yrotation Zrotation
						JOINT mixamorig:RightForeArm
						{
							OFFSET -27.841511 0.000031 -0.000004
							CHANNELS 6 Xposition Yposition Zposition Xrotation Yrotation Zrotation
							JOINT mixamorig:RightHand
							{
								OFFSET -28.328831 -0.000015 0.000015
								CHANNELS 6 Xposition Yposition Zposition Xrotation Yrotation Zrotation
								JOINT mixamorig:RightHandThumb1
								{
									OFFSET -2.464806 -1.573990 2.681852
									CHANNELS 6 Xposition Yposition Zposition Xrotation Yrotation Zrotation
									JOINT mixamorig:RightHandThumb2
									{
										OFFSET -3.215179 -1.872803 1.924282
										CHANNELS 6 Xposition Yposition Zposition Xrotation Yrotation Zrotation
										JOINT mixamorig:RightHandThumb3
										{
											OFFSET -2.654831 -1.527969 1.512609
											CHANNELS 6 Xposition Yposition Zposition Xrotation Yrotation Zrotation
											JOINT mixamorig:RightHandThumb4
											{
												OFFSET -2.018814 -1.152008 1.108052
												CHANNELS 6 Xposition Yposition Zposition Xrotation Yrotation Zrotation
												End Site
												{
													OFFSET -188.809540 -114.533607 132.431396
												}
											}
										}
									}
								}
								JOINT mixamorig:RightHandIndex1
								{
									OFFSET -9.108284 -0.517868 2.259835
									CHANNELS 6 Xposition Yposition Zposition Xrotation Yrotation Zrotation
									JOINT mixamorig:RightHandIndex2
									{
										OFFSET -3.699989 0.000000 0.001215
										CHANNELS 6 Xposition Yposition Zposition Xrotation Yrotation Zrotation
										JOINT mixamorig:RightHandIndex3
										{
											OFFSET -2.850006 0.000031 -0.000522
											CHANNELS 6 Xposition Yposition Zposition Xrotation Yrotation Zrotation
											JOINT mixamorig:RightHandIndex4
											{
												OFFSET -2.772186 -0.000015 -0.000020
												CHANNELS 6 Xposition Yposition Zposition Xrotation Yrotation Zrotation
												End Site
												{
													OFFSET -277.218445 0.000000 -0.050231
												}
											}
										}
									}
								}
								JOINT mixamorig:RightHandMiddle1
								{
									OFFSET -9.532516 -0.000031 -0.000023
									CHANNELS 6 Xposition Yposition Zposition Xrotation Yrotation Zrotation
									JOINT mixamorig:RightHandMiddle2
									{
										OFFSET -3.700005 -0.000015 0.003713
										CHANNELS 6 Xposition Yposition Zposition Xrotation Yrotation Zrotation
										JOINT mixamorig:RightHandMiddle3
										{
											OFFSET -2.949974 0.000015 -0.002054
											CHANNELS 6 Xposition Yposition Zposition Xrotation Yrotation Zrotation
											JOINT mixamorig:RightHandMiddle4
											{
												OFFSET -2.946640 0.000000 -0.000156
												CHANNELS 6 Xposition Yposition Zposition Xrotation Yrotation Zrotation
												End Site
												{
													OFFSET -294.664337 0.000000 -0.113670
												}
											}
										}
									}
								}
								JOINT mixamorig:RightHandRing1
								{
									OFFSET -9.103600 -0.043076 -1.865134
									CHANNELS 6 Xposition Yposition Zposition Xrotation Yrotation Zrotation
									JOINT mixamorig:RightHandRing2
									{
										OFFSET -3.379288 0.000000 -0.001055
										CHANNELS 6 Xposition Yposition Zposition Xrotation Yrotation Zrotation
										JOINT mixamorig:RightHandRing3
										{
											OFFSET -2.889687 -0.000015 0.000379
											CHANNELS 6 Xposition Yposition Zposition Xrotation Yrotation Zrotation
											JOINT mixamorig:RightHandRing4
											{
												OFFSET -2.638809 -0.000015 0.000941
												CHANNELS 6 Xposition Yposition Zposition Xrotation Yrotation Zrotation
												End Site
												{
													OFFSET -263.880371 0.000000 0.516020
												}
											}
										}
									}
								}
								JOINT mixamorig:RightHandPinky1
								{
									OFFSET -8.076683 -0.486710 -3.806280
									CHANNELS 6 Xposition Yposition Zposition Xrotation Yrotation Zrotation
									JOINT mixamorig:RightHandPinky2
									{
										OFFSET -3.600014 -0.000015 -0.003747
										CHANNELS 6 Xposition Yposition Zposition Xrotation Yrotation Zrotation
										JOINT mixamorig:RightHandPinky3
										{
											OFFSET -2.099983 0.000000 -0.005739
											CHANNELS 6 Xposition Yposition Zposition Xrotation Yrotation Zrotation
											JOINT mixamorig:RightHandPinky4
											{
												OFFSET -2.115768 -0.000031 -0.003680
												CHANNELS 6 Xposition Yposition Zposition Xrotation Yrotation Zrotation
												End Site
												{
													OFFSET -211.577087 0.000000 -0.350686
												}
											}
										}
									}
								}
							}
						}
					}
				}
				JOINT mixamorig:LeftShoulder
				{
					OFFSET 4.570447 11.014725 -2.160855
					CHANNELS 6 Xposition Yposition Zposition Xrotation Yrotation Zrotation
					JOINT mixamorig:LeftArm
					{
						OFFSET 10.592371 -0.524597 -2.232119
						CHANNELS 6 Xposition Yposition Zposition Xrotation Yrotation Zrotation
						JOINT mixamorig:LeftForeArm
						{
							OFFSET 27.841532 -0.000031 0.000026
							CHANNELS 6 Xposition Yposition Zposition Xrotation Yrotation Zrotation
							JOINT mixamorig:LeftHand
							{
								OFFSET 28.328846 -0.000061 0.000022
								CHANNELS 6 Xposition Yposition Zposition Xrotation Yrotation Zrotation
								JOINT mixamorig:LeftHandThumb1
								{
									OFFSET 2.466141 -1.576172 2.681732
									CHANNELS 6 Xposition Yposition Zposition Xrotation Yrotation Zrotation
									JOINT mixamorig:LeftHandThumb2
									{
										OFFSET 3.217812 -1.872070 1.916482
										CHANNELS 6 Xposition Yposition Zposition Xrotation Yrotation Zrotation
										JOINT mixamorig:LeftHandThumb3
										{
											OFFSET 2.656029 -1.528778 1.514513
											CHANNELS 6 Xposition Yposition Zposition Xrotation Yrotation Zrotation
											JOINT mixamorig:LeftHandThumb4
											{
												OFFSET 2.020889 -1.154053 1.115139
												CHANNELS 6 Xposition Yposition Zposition Xrotation Yrotation Zrotation
												End Site
												{
													OFFSET 190.885437 -115.081749 130.048782
												}
											}
										}
									}
								}
								JOINT mixamorig:LeftHandIndex1
								{
									OFFSET 9.109314 -0.518021 2.259871
									CHANNELS 6 Xposition Yposition Zposition Xrotation Yrotation Zrotation
									JOINT mixamorig:LeftHandIndex2
									{
										OFFSET 3.699989 0.000000 -0.000322
										CHANNELS 6 Xposition Yposition Zposition Xrotation Yrotation Zrotation
										JOINT mixamorig:LeftHandIndex3
										{
											OFFSET 2.850006 0.000000 0.000352
											CHANNELS 6 Xposition Yposition Zposition Xrotation Yrotation Zrotation
											JOINT mixamorig:LeftHandIndex4
											{
												OFFSET 2.774864 -0.000031 -0.000027
												CHANNELS 6 Xposition Yposition Zposition Xrotation Yrotation Zrotation
												End Site
												{
													OFFSET 277.486267 0.000000 -0.009857
												}
											}
										}
									}
								}
								JOINT mixamorig:LeftHandMiddle1
								{
									OFFSET 9.533394 0.000061 0.000044
									CHANNELS 6 Xposition Yposition Zposition Xrotation Yrotation Zrotation
									JOINT mixamorig:LeftHandMiddle2
									{
										OFFSET 3.699989 -0.000015 -0.000231
										CHANNELS 6 Xposition Yposition Zposition Xrotation Yrotation Zrotation
										JOINT mixamorig:LeftHandMiddle3
										{
											OFFSET 2.949997 -0.000015 -0.000059
											CHANNELS 6 Xposition Yposition Zposition Xrotation Yrotation Zrotation
											JOINT mixamorig:LeftHandMiddle4
											{
												OFFSET 2.952896 0.000031 0.000063
												CHANNELS 6 Xposition Yposition Zposition Xrotation Yrotation Zrotation
												End Site
												{
													OFFSET 295.289337 0.000000 0.022810
												}
											}
										}
									}
								}
								JOINT mixamorig:LeftHandRing1
								{
									OFFSET 9.104523 -0.042999 -1.865074
									CHANNELS 6 Xposition Yposition Zposition Xrotation Yrotation Zrotation
									JOINT mixamorig:LeftHandRing2
									{
										OFFSET 3.150009 -0.000031 0.000043
										CHANNELS 6 Xposition Yposition Zposition Xrotation Yrotation Zrotation
										JOINT mixamorig:LeftHandRing3
										{
											OFFSET 2.949982 -0.000015 0.000040
											CHANNELS 6 Xposition Yposition Zposition Xrotation Yrotation Zrotation
											JOINT mixamorig:LeftHandRing4
											{
												OFFSET 2.644348 0.000000 0.000057
												CHANNELS 6 Xposition Yposition Zposition Xrotation Yrotation Zrotation
												End Site
												{
													OFFSET 264.434631 0.000000 0.012105
												}
											}
										}
									}
								}
								JOINT mixamorig:LeftHandPinky1
								{
									OFFSET 8.077789 -0.486847 -3.806259
									CHANNELS 6 Xposition Yposition Zposition Xrotation Yrotation Zrotation
									JOINT mixamorig:LeftHandPinky2
									{
										OFFSET 3.599953 0.000031 0.014727
										CHANNELS 6 Xposition Yposition Zposition Xrotation Yrotation Zrotation
										JOINT mixamorig:LeftHandPinky3
										{
											OFFSET 2.100021 0.000015 0.007705
											CHANNELS 6 Xposition Yposition Zposition Xrotation Yrotation Zrotation
											JOINT mixamorig:LeftHandPinky4
											{
												OFFSET 2.125504 0.000031 0.007517
												CHANNELS 6 Xposition Yposition Zposition Xrotation Yrotation Zrotation
												End Site
												{
													OFFSET 212.550781 0.000000 0.625752
												}
											}
										}
									}
								}
							}
						}
					}
				}
			}
		}
	}
	JOINT mixamorig:RightUpLeg
	{
		OFFSET -8.207787 -6.751648 -1.599560
		CHANNELS 6 Xposition Yposition Zposition Xrotation Yrotation Zrotation
		JOINT mixamorig:RightLeg
		{
			OFFSET -0.000002 -44.370117 0.345942
			CHANNELS 6 Xposition Yposition Zposition Xrotation Yrotation Zrotation
			JOINT mixamorig:RightFoot
			{
				OFFSET 0.000003 -44.423679 -3.043532
				CHANNELS 6 Xposition Yposition Zposition Xrotation Yrotation Zrotation
				JOINT mixamorig:RightToeBase
				{
					OFFSET -0.000002 -8.728671 10.710558
					CHANNELS 6 Xposition Yposition Zposition Xrotation Yrotation Zrotation
					JOINT mixamorig:RightToe_End
					{
						OFFSET -0.000001 -0.000679 9.278119
						CHANNELS 6 Xposition Yposition Zposition Xrotation Yrotation Zrotation
						End Site
						{
							OFFSET 0.000000 -0.067690 927.812134
						}
					}
				}
			}
		}
	}
	JOINT mixamorig:LeftUpLeg
	{
		OFFSET 8.207793 -6.751686 -1.599556
		CHANNELS 6 Xposition Yposition Zposition Xrotation Yrotation Zrotation
		JOINT mixamorig:LeftLeg
		{
			OFFSET -0.000004 -44.370014 0.346954
			CHANNELS 6 Xposition Yposition Zposition Xrotation Yrotation Zrotation
			JOINT mixamorig:LeftFoot
			{
				OFFSET -0.000001 -44.423672 -3.044401
				CHANNELS 6 Xposition Yposition Zposition Xrotation Yrotation Zrotation
				JOINT mixamorig:LeftToeBase
				{
					OFFSET -0.000002 -8.728669 10.710558
					CHANNELS 6 Xposition Yposition Zposition Xrotation Yrotation Zrotation
					JOINT mixamorig:LeftToe_End
					{
						OFFSET -0.000003 -0.000679 9.278133
						CHANNELS 6 Xposition Yposition Zposition Xrotation Yrotation Zrotation
						End Site
						{
							OFFSET 0.000000 -0.068021 927.813477
						}
					}
				}
			}
		}
	}
}
MOTION
Frames: 3
Frame Time: 0.033333
0.000006 104.270477 1.554256 0.000010 0.000003 -0.000113 -0.000005 10.181587 0.131522 0.000001 -0.000003 0.000084 -0.000000 9.893967 -1.470711 0.000001 0.000000 -0.000000 -0.000000 9.220802 -1.370642 0.000000 -0.000000 -0.000000 0.000001 16.740433 -2.049030 0.000000 -0.000000 -0.000000 0.000000 9.617859 1.685014 0.000000 0.000000 0.000000 0.000002 22.037384 7.501101 0.000000 -0.000000 0.000000 -4.569968 11.014880 -2.160881 0.000008 0.000001 -0.000038 -10.592874 -0.524729 -2.231949 75.788052 21.638321 -16.920375 -27.841526 0.000014 0.000532 -58.772057 109.137714 76.724389 -28.328827 0.000006 0.000030 -0.000318 -0.000042 0.000006 -2.464507 -1.573986 2.682412 -17.880561 -154.533563 49.989028 -3.215286 -1.872625 1.924672 159.346920 31.204669 -1.260492 -2.654955 -1.527896 1.513095 152.089721 25.329750 -41.186498 -2.018842 -1.152000 1.108068 -0.000004 -0.000001 0.000002 -9.108410 -0.517571 2.260134 101.652346 18.466458 -22.623216 -3.700064 0.000319 0.001505 96.243082 15.169925 -16.869247 -2.850078 0.000367 -0.000263 94.405399 12.072441 -13.029271 -2.772157 -0.000014 -0.000019 0.000001 -0.000001 0.000001 -9.532611 0.000270 0.000240 93.638991 16.672003 -17.901362 -3.700057 0.000327 0.003973 94.672289 11.359661 -12.217076 -2.950058 0.000341 -0.001826 93.507475 10.995965 -11.678429 -2.946632 0.000014 -0.000154 -0.000001 0.000001 -0.000000 -9.103712 -0.042750 -1.864883 92.171361 17.430482 -18.046519 -3.379306 0.000323 -0.000805 94.158946 8.345529 -8.990273 -2.889756 0.000351 0.000614 94.595497 5.639803 -6.158901 -2.638811 -0.000016 0.000941 0.000001 -0.000000 -0.000002 -8.076752 -0.486382 -3.806036 85.898604 16.423311 -15.162006 -3.600033 0.000283 -0.003521 88.779099 7.862435 -7.352228 -2.100008 0.000321 -0.005511 88.222022 5.639804 -5.255028 -2.115772 -0.000054 -0.003676 0.000001 -0.000000 -0.000002 4.570446 11.014691 -2.160851 -0.000018 0.000010 -0.000021 10.592385 -0.524485 -2.232326 74.676166 -6.957217 5.310114 27.841837 0.000092 -0.000165 104.759836 -67.920890 82.302502 28.328840 -0.000029 0.000027 0.000021 -0.000089 -0.000000 2.466136 -1.576149 2.681886 -13.208649 154.855401 -57.677205 3.217793 -1.871720 1.916371 158.493447 -31.282324 0.432830 2.656104 -1.528642 1.514463 143.674723 -27.011265 43.415910 2.020884 -1.154069 1.115149 -0.000002 0.000005 0.000002 9.109372 -0.517875 2.259747 82.124419 -16.638947 14.509378 3.700045 0.000140 -0.000456 77.864423 -16.822363 13.637856 2.850055 0.000167 0.000217 75.127122 -14.002357 10.789975 2.774888 -0.000033 -0.000022 -0.000000 -0.000002 -0.000000 9.533464 0.000207 -0.000098 80.574895 -15.299299 12.983146 3.700044 0.000163 -0.000369 83.702841 -14.860367 13.322976 2.950059 0.000150 -0.000205 82.280099 -17.483531 15.304142 2.952873 -0.000016 0.000062 0.000000 -0.000000 -0.000000 9.104584 -0.042863 -1.865230 79.419759 -14.704120 12.234285 3.150053 0.000195 -0.000100 85.825090 -12.817662 11.924580 2.950031 0.000142 -0.000072 86.038076 -13.774157 12.862838 2.644323 0.000033 0.000054 0.000000 0.000001 0.000001 8.077848 -0.486732 -3.806388 73.152972 -15.922875 12.289551 3.600005 0.000159 0.014566 75.233748 -13.502348 10.821708 2.100039 0.000157 0.007544 77.624226 -12.329424 10.322917 2.125501 -0.000016 0.007511 0.000001 0.000004 0.000001 -8.207786 -6.751667 -1.599560 -0.077001 -0.000003 0.000080 -0.000002 -44.370110 0.345938 0.153719 -0.000000 -0.000000 0.000000 -44.423679 -3.043532 -0.076700 0.000000 -0.000002 -0.000006 -8.728667 10.710559 -0.000009 -0.000000 -0.000000 -0.000001 -0.000679 9.278123 0.000000 -0.000000 -0.000000 8.207792 -6.751710 -1.599556 -0.074518 -0.000003 0.000081 -0.000002 -44.370014 0.346960 0.148822 0.000002 0.000000 -0.000001 -44.423664 -3.044403 -0.074314 0.000000 -0.000002 -0.000004 -8.728671 10.710558 0.000007 -0.000000 -0.000000 0.000000 -0.000680 9.278137 -0.000000 0.000000 -0.000001 
0.000006 104.270477 1.554256 0.000010 0.000003 -0.000113 -0.000005 10.181587 0.131522 0.000001 -0.000003 0.000084 -0.000000 9.893967 -1.470711 0.000001 0.000000 -0.000000 -0.000000 9.220802 -1.370642 0.000000 -0.000000 -0.000000 0.000001 16.740433 -2.049030 0.000000 -0.000000 -0.000000 0.000000 9.617859 1.685014 0.000000 0.000000 0.000000 0.000002 22.037384 7.501101 0.000000 -0.000000 0.000000 -4.569968 11.014880 -2.160881 0.000008 0.000001 -0.000038 -10.592881 -0.524739 -2.231933 75.485482 23.536198 -18.321769 -27.841526 -0.000002 0.000549 -58.747147 106.744942 74.261307 -28.328823 0.000022 0.000027 -0.000319 -0.000046 0.000008 -2.464438 -1.573777 2.682335 -46.899654 -164.704179 -7.242718 -3.215247 -1.872553 1.924645 152.167449 32.959932 15.249808 -2.654958 -1.527874 1.513070 148.942274 26.955367 -33.348296 -2.018850 -1.152015 1.108044 -0.000004 -0.000004 0.000005 -9.108399 -0.517548 2.260119 97.519371 16.349110 -18.664187 -3.700081 0.000326 0.001512 94.586290 13.871285 -14.990250 -2.850091 0.000365 -0.000265 93.422433 10.398838 -11.034488 -2.772155 -0.000002 -0.000019 -0.000003 0.000000 -0.000000 -9.532605 0.000275 0.000232 92.514858 15.201573 -16.022705 -3.700078 0.000333 0.003963 92.703576 11.581421 -12.038561 -2.950050 0.000334 -0.001807 94.270264 10.928536 -11.761657 -2.946624 0.000001 -0.000156 -0.000006 0.000000 -0.000000 -9.103708 -0.042757 -1.864880 90.676724 16.324588 -16.471058 -3.379303 0.000325 -0.000818 92.197131 7.962904 -8.290842 -2.889736 0.000371 0.000656 98.651837 5.024372 -5.896976 -2.638807 -0.000016 0.000939 0.000000 0.000000 -0.000001 -8.076751 -0.486384 -3.806039 84.112052 15.208378 -13.601571 -3.600023 0.000290 -0.003539 87.240627 5.120094 -4.556332 -2.100022 0.000333 -0.005488 91.637329 2.613861 -2.473947 -2.115784 -0.000041 -0.003676 -0.000003 -0.000001 -0.000003 4.570446 11.014691 -2.160851 -0.000018 0.000010 -0.000021 10.592371 -0.524503 -2.232322 74.963566 -0.753826 0.578142 27.841831 0.000079 -0.000195 102.386182 -71.106497 83.254071 28.328838 -0.000028 0.000023 0.000022 -0.000089 0.000000 2.466212 -1.576087 2.681854 1.635730 163.451317 -88.214133 3.217845 -1.871762 1.916400 166.707214 -27.104509 19.502982 2.656115 -1.528678 1.514493 146.179408 -25.010102 57.339329 2.020883 -1.154054 1.115148 -0.000003 0.000002 0.000003 9.109386 -0.517883 2.259748 82.487471 -21.414952 18.815225 3.700040 0.000149 -0.000470 80.020488 -14.103623 11.870755 2.850040 0.000171 0.000207 79.576034 -11.101211 9.253038 2.774881 -0.000048 -0.000033 -0.000001 0.000001 -0.000001 9.533470 0.000187 -0.000086 81.919424 -20.395015 17.741884 3.700042 0.000192 -0.000379 85.113883 -12.114739 11.127321 2.950058 0.000183 -0.000202 86.238365 -11.369499 10.653541 2.952881 -0.000016 0.000065 -0.000000 -0.000000 -0.000000 9.104595 -0.042871 -1.865214 82.649954 -20.097898 17.714775 3.150052 0.000197 -0.000101 86.079815 -12.389259 11.576786 2.950018 0.000189 -0.000086 86.932175 -9.748881 9.244269 2.644303 0.000032 0.000052 -0.000000 0.000002 -0.000000 8.077849 -0.486735 -3.806391 75.822039 -21.010155 16.918899 3.600011 0.000158 0.014571 76.250272 -16.233842 13.190287 2.100017 0.000161 0.007552 79.472270 -11.465693 9.941314 2.125499 -0.000000 0.007517 -0.000002 0.000004 0.000002 -8.207786 -6.751667 -1.599560 -0.077001 -0.000003 0.000080 -0.000002 -44.370110 0.345938 0.153719 -0.000000 -0.000000 0.000000 -44.423679 -3.043532 -0.076700 0.000000 -0.000002 -0.000006 -8.728667 10.710559 -0.000009 -0.000000 -0.000000 -0.000001 -0.000679 9.278123 0.000000 -0.000000 -0.000000 8.207792 -6.751710 -1.599556 -0.074518 -0.000003 0.000081 -0.000002 -44.370014 0.346960 0.148822 0.000002 0.000000 -0.000001 -44.423664 -3.044403 -0.074314 0.000000 -0.000002 -0.000004 -8.728671 10.710558 0.000007 -0.000000 -0.000000 0.000000 -0.000680 9.278137 -0.000000 0.000000 -0.000001 
0.000006 104.270477 1.554256 0.000010 0.000003 -0.000113 -0.000005 10.181587 0.131522 0.000001 -0.000003 0.000084 -0.000000 9.893967 -1.470711 0.000001 0.000000 -0.000000 -0.000000 9.220802 -1.370642 0.000000 -0.000000 -0.000000 0.000001 16.740433 -2.049030 0.000000 -0.000000 -0.000000 0.000000 9.617859 1.685014 0.000000 0.000000 0.000000 0.000002 22.037384 7.501101 0.000000 -0.000000 0.000000 -4.569968 11.014880 -2.160881 0.000008 0.000001 -0.000038 -10.592878 -0.524754 -2.231919 74.631906 26.164472 -20.089116 -27.841528 0.000014 0.000527 -56.850192 104.206174 69.626457 -28.328831 -0.000007 0.000017 -0.000319 -0.000047 0.000008 -2.464412 -1.573802 2.682346 -46.016771 -163.363864 -5.128866 -3.215281 -1.872541 1.924637 151.477408 32.813236 15.259730 -2.654948 -1.527871 1.513063 148.023955 27.145369 -33.003119 -2.018837 -1.152029 1.108053 -0.000004 -0.000004 -0.000003 -9.108371 -0.517552 2.260117 97.877342 15.710620 -18.051422 -3.700061 0.000334 0.001495 94.847627 13.513370 -14.669785 -2.850081 0.000370 -0.000275 93.783210 10.336192 -11.037054 -2.772167 -0.000018 -0.000019 0.000000 -0.000001 0.000002 -9.532583 0.000271 0.000231 92.368494 15.556985 -16.352673 -3.700071 0.000329 0.003963 92.651038 12.194682 -12.668561 -2.950051 0.000342 -0.001818 94.383290 11.219238 -12.098114 -2.946616 -0.000014 -0.000154 -0.000002 0.000000 -0.000000 -9.103696 -0.042747 -1.864852 90.382862 16.990977 -17.058336 -3.379310 0.000333 -0.000822 91.695925 8.727591 -9.006414 -2.889729 0.000350 0.000640 98.757753 5.403308 -6.349740 -2.638805 -0.000015 0.000940 -0.000000 -0.000002 -0.000002 -8.076736 -0.486379 -3.806026 84.170586 15.888453 -14.230741 -3.600013 0.000289 -0.003544 87.341857 6.039362 -5.437807 -2.099997 0.000335 -0.005490 91.872765 3.140944 -3.026919 -2.115783 -0.000052 -0.003676 -0.000001 0.000000 -0.000006 4.570446 11.014691 -2.160851 -0.000018 0.000010 -0.000021 10.592398 -0.524474 -2.232341 74.159981 -11.278250 8.535392 27.841829 0.000070 -0.000208 104.154586 -72.865401 86.906596 28.328825 -0.000028 0.000021 0.000020 -0.000089 -0.000000 2.466229 -1.576078 2.681839 5.787089 165.363920 -95.423671 3.217838 -1.871766 1.916392 168.157099 -26.846231 20.123388 2.656107 -1.528687 1.514506 145.538245 -24.997758 59.934200 2.020897 -1.154074 1.115147 -0.000000 0.000002 0.000009 9.109375 -0.517886 2.259749 82.435520 -22.159275 19.455739 3.700039 0.000149 -0.000462 80.165158 -14.411479 12.161315 2.850050 0.000190 0.000215 79.442115 -11.178480 9.295550 2.774872 -0.000030 -0.000028 -0.000000 0.000002 -0.000000 9.533452 0.000183 -0.000069 82.353223 -20.461314 17.934239 3.700049 0.000174 -0.000376 84.769061 -11.695741 10.677639 2.950047 0.000163 -0.000205 85.433714 -11.341208 10.479264 2.952864 -0.000015 0.000063 0.000000 0.000002 0.000001 9.104588 -0.042869 -1.865222 83.143900 -20.009611 17.788041 3.150031 0.000192 -0.000101 86.085505 -12.088293 11.296443 2.950022 0.000161 -0.000079 86.478507 -9.795187 9.215140 2.644333 0.000030 0.000054 0.000002 -0.000000 0.000000 8.077844 -0.486736 -3.806388 75.808140 -20.812555 16.757989 3.600019 0.000175 0.014582 76.764708 -15.932442 13.069504 2.100013 0.000180 0.007555 79.725062 -11.625203 10.120112 2.125488 -0.000014 0.007512 -0.000000 -0.000001 0.000000 -8.207786 -6.751667 -1.599560 -0.077001 -0.000003 0.000080 -0.000002 -44.370110 0.345938 0.153719 -0.000000 -0.000000 0.000000 -44.423679 -3.043532 -0.076700 0.000000 -0.000002 -0.000006 -8.728667 10.710559 -0.000009 -0.000000 -0.000000 -0.000001 -0.000679 9.278123 0.000000 -0.000000 -0.000000 8.207792 -6.751710 -1.599556 -0.074518 -0.000003 0.000081 -0.000002 -44.370014 0.346960 0.148822 0.000002 0.000000 -0.000001 -44.423664 -3.044403 -0.074314 0.000000 -0.000002 -0.000004 -8.728671 10.710558 0.000007 -0.000000 -0.000000 0.000000 -0.000680 9.278137 -0.000000 0.000000 -0.000001 
